<svg width="18" height="18" viewBox="0 0 18 18" fill="none" xmlns="http://www.w3.org/2000/svg">
<path d="M17.812 8.91661C17.812 8.36507 17.3665 7.91959 16.815 7.91959L9.90656 7.91252L9.90657 0.997021C9.90657 0.445477 9.46109 -3.28745e-08 8.90954 0C8.358 3.28745e-08 7.91252 0.445478 7.91252 0.997021V7.91252L0.99702 7.91252C0.445477 7.91252 3.28745e-08 8.358 0 8.90954C-3.28745e-08 9.46109 0.445477 9.90657 0.997021 9.90657L7.91252 9.90656L7.91252 16.8221C7.91252 17.3736 8.358 17.8191 8.90954 17.8191C9.46109 17.8191 9.90656 17.3736 9.90656 16.8221V9.90656H16.8221C17.3595 9.90656 17.812 9.45402 17.812 8.91661Z" fill="#BBBBCE"/>
</svg>
