<svg width="19" height="22" viewBox="0 0 19 22" fill="none" xmlns="http://www.w3.org/2000/svg">
<g clip-path="url(#clip0_4_110)">
<path d="M18.3004 8.62618C18.3004 7.91052 17.7125 7.32266 16.9969 7.32266C16.2812 7.32266 15.6934 7.91052 15.6934 8.62618V14.0575C15.6934 14.7731 16.2812 15.361 16.9969 15.361C17.7125 15.361 18.3004 14.7731 18.3004 14.0575V8.62618Z" fill="#BBBBCE"/>
<path d="M3.09263 8.62618C3.09263 7.91052 2.50477 7.32266 1.78911 7.32266C1.07346 7.32266 0.485596 7.91052 0.485596 8.62618V14.0575C0.485596 14.7731 1.07346 15.361 1.78911 15.361C2.50477 15.361 3.09263 14.7731 3.09263 14.0575V8.62618Z" fill="#BBBBCE"/>
<path d="M12.2428 2.41535L13.1629 0.754008C13.214 0.664551 13.1821 0.549536 13.0926 0.504807C13.0671 0.492028 13.0351 0.479248 13.0032 0.479248C12.9393 0.479248 12.8754 0.511197 12.8434 0.575095L11.9105 2.2556C11.1501 1.91695 10.2939 1.72525 9.39294 1.72525C8.49199 1.72525 7.63576 1.91695 6.87537 2.2556L5.94885 0.575095C5.89774 0.485638 5.78911 0.453689 5.69965 0.504807C5.6102 0.555925 5.57825 0.664551 5.62937 0.754008L6.54949 2.41535C4.77314 3.33548 3.57825 5.07988 3.57825 7.08627H15.2076C15.2076 5.07988 14.0128 3.33548 12.2428 2.41535ZM6.70924 4.95848C6.44087 4.95848 6.22361 4.74122 6.22361 4.47285C6.22361 4.20448 6.44087 3.98723 6.70924 3.98723C6.97761 3.98723 7.19486 4.20448 7.19486 4.47285C7.19486 4.74122 6.97761 4.95848 6.70924 4.95848ZM12.0766 4.95848C11.8083 4.95848 11.591 4.74122 11.591 4.47285C11.591 4.20448 11.8083 3.98723 12.0766 3.98723C12.345 3.98723 12.5623 4.20448 12.5623 4.47285C12.5623 4.74122 12.345 4.95848 12.0766 4.95848Z" fill="#BBBBCE"/>
<path d="M3.57825 7.54633V15.9744C3.57825 16.754 4.20445 17.3802 4.984 17.3802H5.91691V20.2556C5.91691 20.9712 6.50476 21.5591 7.22042 21.5591C7.93607 21.5591 8.52393 20.9712 8.52393 20.2556V17.3802H10.262V20.2556C10.262 20.9712 10.8498 21.5591 11.5655 21.5591C12.2811 21.5591 12.869 20.9712 12.869 20.2556V17.3802H13.8019C14.5814 17.3802 15.2076 16.754 15.2076 15.9744V7.54633H3.57825Z" fill="#BBBBCE"/>
</g>
<defs>
<clipPath id="clip0_4_110">
<rect width="18.7348" height="22" fill="white"/>
</clipPath>
</defs>
</svg>
