<svg width="32.57px" height="30" viewBox="0 0 40 40" fill="none" xmlns="http://www.w3.org/2000/svg">
<g clip-path="url(#clip0_4_190)">
<path d="M30.9177 21.2536C30.8673 16.1879 35.049 13.7584 35.2358 13.6377C32.8862 10.1995 29.226 9.72844 27.9217 9.67398C24.8068 9.35859 21.8438 11.5079 20.2629 11.5079C18.686 11.5079 16.2466 9.72062 13.6632 9.76758C10.2681 9.81805 7.13751 11.7417 5.38931 14.7824C1.86181 20.9035 4.48595 29.9715 7.92407 34.9358C9.60407 37.3658 11.6074 40.095 14.2376 39.9975C16.7705 39.8964 17.7283 38.3585 20.7906 38.3585C23.8527 38.3585 24.7136 39.9975 27.394 39.9472C30.1196 39.8966 31.8464 37.4707 33.5149 35.0333C35.4441 32.2142 36.2384 29.4849 36.2853 29.3448C36.2248 29.3172 30.9704 27.3043 30.9177 21.2536ZM25.8812 6.38758C27.2772 4.69391 28.2195 2.34414 27.9624 0C25.9516 0.081875 23.5142 1.33945 22.0714 3.0293C20.7769 4.52836 19.6437 6.92094 19.9474 9.2182C22.1922 9.39336 24.4837 8.07742 25.8812 6.38758Z" fill="black"/>
</g>
<defs>
<clipPath id="clip0_4_190">
<rect width="40" height="40" fill="white"/>
</clipPath>
</defs>
</svg>
