<svg width="20" height="20" viewBox="0 0 20 20" fill="none" xmlns="http://www.w3.org/2000/svg">
<g clip-path="url(#clip0_4_116)">
<path d="M15.4589 10.6268C15.4336 8.09394 17.5245 6.87922 17.6179 6.81887C16.4431 5.09973 14.613 4.86422 13.9609 4.83699C12.4034 4.6793 10.9219 5.75395 10.1315 5.75395C9.34301 5.75395 8.12329 4.86031 6.83161 4.88379C5.13403 4.90902 3.56876 5.87086 2.69465 7.39121C0.930904 10.4518 2.24297 14.9857 3.96204 17.4679C4.80204 18.6829 5.80368 20.0475 7.11879 19.9987C8.38524 19.9482 8.86415 19.1793 10.3953 19.1793C11.9264 19.1793 12.3568 19.9988 13.697 19.9736C15.0598 19.9483 15.9232 18.7354 16.7574 17.5166C17.722 16.1071 18.1192 14.7425 18.1427 14.6724C18.1124 14.6586 15.4852 13.6521 15.4589 10.6268ZM12.9406 3.19379C13.6386 2.34695 14.1097 1.17207 13.9812 0C12.9758 0.0409375 11.7571 0.669727 11.0357 1.51465C10.3884 2.26418 9.82184 3.46047 9.97368 4.6091C11.0961 4.69668 12.2418 4.03871 12.9406 3.19379Z" fill="#BBBBCE"/>
</g>
<defs>
<clipPath id="clip0_4_116">
<rect width="20" height="20" fill="white"/>
</clipPath>
</defs>
</svg>
