<svg width="34" height="40" viewBox="0 0 34 40" fill="none" xmlns="http://www.w3.org/2000/svg">
<path d="M27.9177 21.2536C27.8673 16.1879 32.049 13.7584 32.2358 13.6377C29.8862 10.1995 26.226 9.72844 24.9217 9.67398C21.8068 9.35859 18.8438 11.5079 17.2629 11.5079C15.686 11.5079 13.2466 9.72062 10.6632 9.76758C7.26806 9.81805 4.13751 11.7417 2.38931 14.7824C-1.13819 20.9035 1.48595 29.9715 4.92407 34.9358C6.60407 37.3658 8.60736 40.095 11.2376 39.9975C13.7705 39.8964 14.7283 38.3585 17.7906 38.3585C20.8527 38.3585 21.7136 39.9975 24.394 39.9472C27.1196 39.8966 28.8464 37.4707 30.5149 35.0333C32.4441 32.2142 33.2384 29.4849 33.2853 29.3448C33.2248 29.3172 27.9704 27.3043 27.9177 21.2536ZM22.8812 6.38758C24.2772 4.69391 25.2195 2.34414 24.9624 0C22.9516 0.081875 20.5142 1.33945 19.0714 3.0293C17.7769 4.52836 16.6437 6.92094 16.9474 9.2182C19.1922 9.39336 21.4837 8.07742 22.8812 6.38758Z" fill="black"/>
</svg>
