<svg width="13" height="22" viewBox="0 0 13 22" fill="none" xmlns="http://www.w3.org/2000/svg">
<path d="M9.24278 2.41535L10.1629 0.754008C10.214 0.664551 10.1821 0.549536 10.0926 0.504807C10.0671 0.492028 10.0351 0.479248 10.0032 0.479248C9.93927 0.479248 9.87537 0.511197 9.84342 0.575095L8.91052 2.2556C8.15013 1.91695 7.2939 1.72525 6.39294 1.72525C5.49199 1.72525 4.63576 1.91695 3.87537 2.2556L2.94885 0.575095C2.89774 0.485638 2.78911 0.453689 2.69965 0.504807C2.6102 0.555925 2.57825 0.664551 2.62937 0.754008L3.54949 2.41535C1.77314 3.33548 0.578247 5.07988 0.578247 7.08627H12.2076C12.2076 5.07988 11.0128 3.33548 9.24278 2.41535ZM3.70924 4.95848C3.44087 4.95848 3.22361 4.74122 3.22361 4.47285C3.22361 4.20448 3.44087 3.98723 3.70924 3.98723C3.97761 3.98723 4.19486 4.20448 4.19486 4.47285C4.19486 4.74122 3.97761 4.95848 3.70924 4.95848ZM9.07665 4.95848C8.80828 4.95848 8.59103 4.74122 8.59103 4.47285C8.59103 4.20448 8.80828 3.98723 9.07665 3.98723C9.34502 3.98723 9.56227 4.20448 9.56227 4.47285C9.56227 4.74122 9.34502 4.95848 9.07665 4.95848Z" fill="#BBBBCE"/>
<path d="M0.578247 7.54633V15.9744C0.578247 16.754 1.20445 17.3802 1.984 17.3802H2.91691V20.2556C2.91691 20.9712 3.50476 21.5591 4.22042 21.5591C4.93607 21.5591 5.52393 20.9712 5.52393 20.2556V17.3802H7.26195V20.2556C7.26195 20.9712 7.84981 21.5591 8.56547 21.5591C9.28112 21.5591 9.86898 20.9712 9.86898 20.2556V17.3802H10.8019C11.5814 17.3802 12.2076 16.754 12.2076 15.9744V7.54633H0.578247Z" fill="#BBBBCE"/>
</svg>
