<svg width="18" height="20" viewBox="0 0 18 20" fill="none" xmlns="http://www.w3.org/2000/svg">
<path d="M14.4589 10.6268C14.4336 8.09394 16.5245 6.87922 16.6179 6.81887C15.4431 5.09973 13.613 4.86422 12.9609 4.83699C11.4034 4.6793 9.92188 5.75395 9.13145 5.75395C8.34301 5.75395 7.12329 4.86031 5.83161 4.88379C4.13403 4.90902 2.56876 5.87086 1.69465 7.39121C-0.0690956 10.4518 1.24297 14.9857 2.96204 17.4679C3.80204 18.6829 4.80368 20.0475 6.11879 19.9987C7.38524 19.9482 7.86415 19.1793 9.39528 19.1793C10.9264 19.1793 11.3568 19.9988 12.697 19.9736C14.0598 19.9483 14.9232 18.7354 15.7574 17.5166C16.722 16.1071 17.1192 14.7425 17.1427 14.6724C17.1124 14.6586 14.4852 13.6521 14.4589 10.6268ZM11.9406 3.19379C12.6386 2.34695 13.1097 1.17207 12.9812 0C11.9758 0.0409375 10.7571 0.669727 10.0357 1.51465C9.38844 2.26418 8.82184 3.46047 8.97368 4.6091C10.0961 4.69668 11.2418 4.03871 11.9406 3.19379Z" fill="#BBBBCE"/>
</svg>
