<svg width="16" height="16" viewBox="0 0 16 16" fill="none" xmlns="http://www.w3.org/2000/svg">
<path d="M2.36611 2.34999C3.99611 0.719992 6.30611 -0.220008 8.84611 0.0399922C12.5161 0.409992 15.5361 3.38999 15.9461 7.05999C16.4961 11.91 12.7461 16 8.01611 16C4.82611 16 2.08611 14.13 0.806114 11.44C0.486114 10.77 0.966114 9.99999 1.70611 9.99999C2.07611 9.99999 2.42611 10.2 2.58611 10.53C3.71611 12.96 6.42611 14.5 9.38611 13.84C11.6061 13.35 13.3961 11.54 13.8661 9.31999C14.7061 5.43999 11.7561 1.99999 8.01611 1.99999C6.35611 1.99999 4.87611 2.68999 3.79611 3.77999L5.30611 5.28999C5.93611 5.91999 5.49611 6.99999 4.60611 6.99999H1.01611C0.466113 6.99999 0.0161133 6.54999 0.0161133 5.99999V2.40999C0.0161133 1.51999 1.09611 1.06999 1.72611 1.69999L2.36611 2.34999Z" fill="#BBBBCE"/>
</svg>
