<svg width="43" height="25" viewBox="0 0 43 25" fill="none" xmlns="http://www.w3.org/2000/svg">
<path d="M41.6555 20.0442V19.5642H41.5241L41.372 19.8939L41.2208 19.5642H41.0885V20.0442H41.1819V19.6822L41.3241 19.9946H41.4208L41.563 19.6815V20.0442H41.6555ZM40.8216 20.0442V19.646H40.9902V19.565H40.5604V19.646H40.729V20.0442H40.8216Z" fill="#F79410"/>
<path d="M26.7125 22.1089H15.3385V2.64746H26.7125V22.1089Z" fill="#FF5F00"/>
<path d="M16.0671 12.3768C16.0671 8.42906 18.0086 4.91249 21.0319 2.64628C18.821 0.989108 16.0308 7.25902e-07 12.9983 7.25902e-07C5.81938 7.25902e-07 0 5.54121 0 12.3768C0 19.2125 5.81938 24.7537 12.9983 24.7537C16.0308 24.7537 18.821 23.7646 21.0319 22.1074C18.0086 19.8412 16.0671 16.3246 16.0671 12.3768Z" fill="#EB001B"/>
<path d="M42.0524 12.3768C42.0524 19.2125 36.233 24.7537 29.054 24.7537C26.0216 24.7537 23.2314 23.7646 21.0197 22.1074C24.0438 19.8412 25.9853 16.3246 25.9853 12.3768C25.9853 8.42906 24.0438 4.91249 21.0197 2.64628C23.2314 0.989108 26.0216 7.25902e-07 29.054 7.25902e-07C36.233 7.25902e-07 42.0524 5.54121 42.0524 12.3768Z" fill="#F79E1B"/>
</svg>
