<svg width="22" height="22" viewBox="0 0 22 22" fill="none" xmlns="http://www.w3.org/2000/svg">
<path d="M21.7238 7.66694L19.7692 5.9248L19.2409 3.36438C19.2088 3.21553 19.1344 3.07909 19.0267 2.97141C18.9189 2.86373 18.7824 2.78938 18.6334 2.75727L16.0713 2.22935L14.3281 0.276045C14.2263 0.157593 14.0918 0.0718445 13.9414 0.029576C13.791 -0.0126924 13.6315 -0.00959449 13.4828 0.0384803L11 0.856758L8.51716 0.0384803C8.36853 -0.00959449 8.20899 -0.0126924 8.05861 0.029576C7.90822 0.0718445 7.7737 0.157593 7.67193 0.276045L5.92866 2.22935L3.36657 2.75727C3.21762 2.78938 3.08109 2.86373 2.97334 2.97141C2.86559 3.07909 2.7912 3.21553 2.75907 3.36438L2.2308 5.9248L0.276224 7.66694C0.157696 7.76864 0.0718912 7.90308 0.0295953 8.05337C-0.0127006 8.20365 -0.00960074 8.36308 0.0385054 8.51161L0.857316 10.9928L0.0385054 13.4741C-0.00960074 13.6226 -0.0127006 13.782 0.0295953 13.9323C0.0718912 14.0826 0.157696 14.2171 0.276224 14.3187L2.2308 16.0609L2.75907 18.6213C2.7912 18.7702 2.86559 18.9066 2.97334 19.0143C3.08109 19.122 3.21762 19.1963 3.36657 19.2284L5.92866 19.7563L7.67193 21.7096C7.7737 21.8281 7.90822 21.9138 8.05861 21.9561C8.20899 21.9984 8.36853 21.9953 8.51716 21.9472L11 21.1289L13.4828 21.9472L13.7206 22C13.8304 21.9987 13.9388 21.9745 14.0389 21.9291C14.1389 21.8836 14.2284 21.8179 14.3017 21.736L16.0449 19.7827L18.607 19.2548C18.756 19.2227 18.8925 19.1484 19.0002 19.0407C19.108 18.933 19.1824 18.7966 19.2145 18.6477L19.7428 16.0873L21.6974 14.3451C21.8159 14.2434 21.9017 14.109 21.944 13.9587C21.9863 13.8084 21.9832 13.649 21.9351 13.5005L21.1427 10.9928L21.9615 8.51161C22.0096 8.36308 22.0127 8.20365 21.9704 8.05337C21.9281 7.90308 21.8423 7.76864 21.7238 7.66694ZM19.5579 11.2304L20.2975 13.4741L18.5278 15.0314C18.4063 15.1439 18.3232 15.2916 18.2901 15.4538L17.8146 17.7502L15.4903 18.2518C15.328 18.2849 15.1802 18.368 15.0676 18.4893L13.5093 20.2579L11.2641 19.5188L11.0264 19.466L10.7887 19.5188L8.54357 20.2579L6.98519 18.4893C6.87262 18.368 6.72483 18.2849 6.56258 18.2518L4.26462 17.7766L3.73636 15.4802C3.70323 15.318 3.62009 15.1703 3.49864 15.0578L1.72895 13.5005L2.46852 11.2568C2.5229 11.094 2.5229 10.918 2.46852 10.7553L1.72895 8.51161L3.49864 6.95425C3.62009 6.84175 3.70323 6.69405 3.73636 6.53191L4.2118 4.23545L6.50975 3.73393C6.672 3.70082 6.81979 3.61774 6.93236 3.49636L8.49074 1.72783L10.7359 2.46692C10.8987 2.52125 11.0749 2.52125 11.2377 2.46692L13.4828 1.72783L15.0412 3.49636C15.1538 3.61774 15.3016 3.70082 15.4638 3.73393L17.7618 4.20906L18.2636 6.50551C18.2968 6.66766 18.3799 6.81535 18.5014 6.92785L20.271 8.48522L19.5315 10.7289C19.4856 10.8945 19.4949 11.0705 19.5579 11.2304Z" fill="#BBBBCE"/>
<path d="M10.2604 8.24773C10.2604 7.79876 10.1271 7.35987 9.87754 6.98657C9.62794 6.61326 9.27317 6.3223 8.8581 6.15049C8.44303 5.97868 7.9863 5.93372 7.54567 6.02131C7.10503 6.1089 6.70028 6.3251 6.3826 6.64257C6.06492 6.96004 5.84858 7.36453 5.76093 7.80487C5.67329 8.24521 5.71827 8.70165 5.8902 9.11644C6.06212 9.53124 6.35327 9.88577 6.72683 10.1352C7.10038 10.3846 7.53956 10.5178 7.98882 10.5178C8.59127 10.5178 9.16905 10.2786 9.59504 9.85289C10.021 9.42718 10.2604 8.84979 10.2604 8.24773ZM7.30208 8.24773C7.30208 8.112 7.34236 7.97931 7.41782 7.86645C7.49328 7.75359 7.60053 7.66563 7.72602 7.61368C7.8515 7.56174 7.98959 7.54815 8.1228 7.57463C8.25602 7.60111 8.37838 7.66647 8.47442 7.76245C8.57047 7.85843 8.63587 7.98072 8.66237 8.11384C8.68887 8.24697 8.67527 8.38496 8.62329 8.51037C8.57131 8.63577 8.48329 8.74295 8.37036 8.81836C8.25742 8.89377 8.12465 8.93403 7.98882 8.93403C7.80669 8.93403 7.63201 8.86172 7.50322 8.73301C7.37443 8.60431 7.30208 8.42975 7.30208 8.24773Z" fill="#BBBBCE"/>
<path d="M13.747 11.732C13.2977 11.732 12.8586 11.8651 12.485 12.1145C12.1115 12.364 11.8203 12.7185 11.6484 13.1333C11.4764 13.5481 11.4315 14.0046 11.5191 14.4449C11.6068 14.8853 11.8231 15.2897 12.1408 15.6072C12.4585 15.9247 12.8632 16.1409 13.3038 16.2285C13.7445 16.3161 14.2012 16.2711 14.6163 16.0993C15.0314 15.9275 15.3861 15.6365 15.6357 15.2632C15.8853 14.8899 16.0185 14.451 16.0185 14.002C16.0185 13.4 15.7792 12.8226 15.3532 12.3969C14.9272 11.9711 14.3495 11.732 13.747 11.732ZM13.747 14.6619C13.6101 14.6618 13.4763 14.6208 13.3629 14.5442C13.2494 14.4675 13.1615 14.3588 13.1104 14.2318C13.0593 14.1049 13.0473 13.9655 13.076 13.8317C13.1047 13.6979 13.1728 13.5758 13.2715 13.4809C13.3702 13.3861 13.495 13.3229 13.63 13.2995C13.7649 13.276 13.9037 13.2935 14.0286 13.3495C14.1536 13.4055 14.2589 13.4975 14.3311 13.6138C14.4033 13.7301 14.439 13.8653 14.4338 14.002C14.4338 14.1841 14.3614 14.3586 14.2326 14.4873C14.1038 14.616 13.9291 14.6883 13.747 14.6883V14.6619Z" fill="#BBBBCE"/>
<path d="M13.7592 7.10288L7.0542 13.8036L8.17482 14.9235L14.8799 8.22278L13.7592 7.10288Z" fill="#BBBBCE"/>
</svg>
