<svg width="112" height="36" viewBox="0 0 112 36" fill="none" xmlns="http://www.w3.org/2000/svg">
<g clip-path="url(#clip0_4_161)">
<path d="M111.531 8.57316C113.051 17.0381 89.3335 28.1229 58.55 33.3314C27.7712 38.5399 1.5874 35.8976 0.0695631 27.4282C-1.44827 18.9632 22.2765 7.88064 53.0554 2.67439C83.8365 -2.53858 110.016 0.106006 111.531 8.57316Z" fill="#034EA2"/>
<path d="M82.5604 21.1365L82.4035 12.3354H85.2593V23.4293H81.1533L78.3022 14.3256H78.2399L78.399 23.4293H75.5594V12.3354H79.8454L82.4981 21.1365H82.5604Z" fill="white"/>
<path d="M30.6357 13.3753L29.0556 23.5458H25.9392L28.0776 12.3354H33.21L35.3415 23.5458H32.2366L30.7003 13.3753H30.6357Z" fill="white"/>
<path d="M44.0909 20.9057L45.5165 12.3354H50.2222L50.4714 23.5458H47.5879L47.5118 13.4672H47.4518L45.5234 23.5458H42.5961L40.6654 13.4672H40.6031L40.5316 23.5458H37.6412L37.8973 12.3354H42.6054L44.0286 20.9057H44.0909Z" fill="white"/>
<path d="M21.0812 20.3835C21.1943 20.6547 21.1597 21.0043 21.1066 21.215C21.0097 21.587 20.7491 21.968 19.9832 21.968C19.2589 21.968 18.8206 21.5646 18.8206 20.9505V19.8658H15.725L15.7227 20.7331C15.7227 23.232 17.748 23.9873 19.9186 23.9873C22.0062 23.9873 23.7248 23.2948 23.997 21.4256C24.1377 20.4574 24.0316 19.8232 23.9854 19.5834C23.4987 17.2369 19.1182 16.5354 18.7929 15.2243C18.7376 15.0002 18.7537 14.7604 18.7814 14.6326C18.8621 14.2763 19.1136 13.8818 19.8356 13.8818C20.5092 13.8818 20.9082 14.2875 20.9082 14.8993C20.9082 15.1055 20.9082 15.5919 20.9082 15.5919H23.7847V14.8052C23.7847 12.3623 21.5287 11.9813 19.8956 11.9813C17.8426 11.9813 16.1656 12.6402 15.8588 14.4645C15.7757 14.9688 15.7642 15.417 15.8841 15.9796C16.3893 18.2678 20.4861 18.9312 21.0812 20.3835Z" fill="white"/>
<path d="M58.6003 20.3633C58.7133 20.6323 58.6764 20.9729 58.6256 21.1836C58.5311 21.5556 58.2727 21.9299 57.5115 21.9299C56.7987 21.9299 56.3627 21.5265 56.3627 20.9259L56.3604 19.8501H53.2971L53.2925 20.7062C53.2925 23.1805 55.2993 23.9268 57.4469 23.9268C59.5114 23.9268 61.2138 23.2432 61.4837 21.392C61.6244 20.4306 61.5252 19.8053 61.4744 19.5699C60.99 17.2459 56.6557 16.5511 56.3327 15.2512C56.2774 15.0271 56.2935 14.7918 56.3212 14.6707C56.4043 14.3099 56.6511 13.9267 57.3662 13.9267C58.0351 13.9267 58.4249 14.3211 58.4249 14.9307C58.4249 15.1347 58.4249 15.6165 58.4249 15.6165H61.2807V14.8366C61.2807 12.4206 59.0431 12.0418 57.4238 12.0418C55.3939 12.0418 53.7308 12.6918 53.4309 14.5049C53.3478 15.0024 53.3386 15.4417 53.4586 16.002C53.9545 18.2678 58.012 18.9267 58.6003 20.3633Z" fill="white"/>
<path d="M68.2909 21.8694C69.0913 21.8694 69.3405 21.3315 69.3958 21.0558C69.4189 20.9348 69.4258 20.7735 69.4235 20.6278V12.3309H72.3415V20.3723C72.3485 20.5785 72.3277 21.0021 72.3162 21.1074C72.1109 23.2006 70.4085 23.8797 68.2886 23.8797C66.1664 23.8797 64.4617 23.2006 64.2587 21.1074C64.2495 21.0021 64.2287 20.5762 64.2333 20.3723V12.3309H67.149V20.6255C67.149 20.7712 67.1537 20.9348 67.1767 21.0536C67.2413 21.3293 67.4835 21.8694 68.2909 21.8694Z" fill="white"/>
<path d="M92.3617 21.7506C93.1967 21.7506 93.4896 21.2374 93.5427 20.9393C93.5635 20.8116 93.5704 20.6547 93.5681 20.5135V18.8864H92.3847V17.2503H96.4768V20.2602C96.4745 20.4709 96.4699 20.6255 96.4353 20.9998C96.2438 23.0393 94.4215 23.7677 92.3778 23.7677C90.3294 23.7677 88.5118 23.0393 88.3157 20.9998C88.2834 20.6255 88.2788 20.4709 88.2742 20.2602L88.2765 15.5403C88.2765 15.3408 88.3018 14.989 88.3249 14.8007C88.581 12.7052 90.3294 12.0306 92.3778 12.0306C94.4239 12.0306 96.2162 12.7007 96.4284 14.8007C96.4653 15.1571 96.4538 15.5403 96.4538 15.5403V15.9146H93.545V15.2871C93.5473 15.2893 93.5404 15.0204 93.5081 14.8612C93.4596 14.6125 93.2382 14.0432 92.357 14.0432C91.5151 14.0432 91.2706 14.5811 91.2083 14.8612C91.1737 15.0091 91.1599 15.2086 91.1599 15.3901V20.518C91.1576 20.6592 91.1668 20.816 91.1898 20.9438C91.236 21.2374 91.5266 21.7506 92.3617 21.7506Z" fill="white"/>
</g>
<defs>
<clipPath id="clip0_4_161">
<rect width="111.6" height="36" fill="white"/>
</clipPath>
</defs>
</svg>
