<svg width="20" height="17" viewBox="0 0 20 17" fill="none" xmlns="http://www.w3.org/2000/svg">
<path d="M20 4.97364V6.53186C19.9844 6.56632 19.9723 6.60221 19.964 6.63899C19.8838 7.26064 19.7015 7.86569 19.424 8.43095C18.8126 9.66227 17.9933 10.7849 17.0001 11.7519C14.9742 13.8049 12.6423 15.4702 10.1605 16.9505C10.1178 16.9826 10.0654 17 10.0115 17C9.95756 17 9.90517 16.9826 9.86248 16.9505C7.86763 15.7903 5.99237 14.4453 4.26274 12.9342C3.02173 11.8696 1.94233 10.6386 1.05689 9.27823C0.569809 8.53111 0.241812 7.6963 0.0923687 6.82334C-0.0570744 5.95039 -0.0249175 5.05709 0.186931 4.19647C1.09489 0.263901 6.12265 -1.34302 9.2545 1.29233C9.52249 1.51632 9.75848 1.77733 10.0265 2.03443C10.0429 2.00749 10.061 1.98148 10.0805 1.95652C11.4804 0.43141 13.2103 -0.250314 15.2802 0.0886003C17.5501 0.458679 19.038 1.77927 19.762 3.9043C19.8615 4.25621 19.9409 4.6132 20 4.97364Z" fill="#5C5C73"/>
</svg>
