<svg width="17" height="16" viewBox="0 0 17 16" fill="none" xmlns="http://www.w3.org/2000/svg">
<path d="M16.5149 6.68436L12.8553 10.2531L13.7222 15.2938C13.7316 15.3651 13.7316 15.4262 13.7316 15.4967C13.7316 15.7571 13.6102 15.9993 13.3185 15.9993C13.1775 15.9993 13.0364 15.9498 12.9156 15.8785L8.38836 13.4996L3.86109 15.8793C3.73091 15.9505 3.6 16 3.45891 16C3.16655 16 3.03564 15.7578 3.03564 15.4975C3.03564 15.4262 3.04655 15.3651 3.05455 15.2945L3.92145 10.2538L0.251636 6.68509C0.130182 6.55345 0 6.38255 0 6.20073C0 5.89818 0.313455 5.77673 0.564364 5.73745L5.62618 5.00145L7.89382 0.413818C7.98546 0.222545 8.15636 0 8.38836 0C8.62036 0 8.79127 0.222545 8.88218 0.413818L11.1513 5.00145L16.2124 5.73745C16.4524 5.77745 16.776 5.89891 16.776 6.20073C16.776 6.38182 16.6458 6.55345 16.5149 6.68436Z" fill="#E9E9F0"/>
</svg>
