<svg width="65" height="20" viewBox="0 0 65 20" fill="none" xmlns="http://www.w3.org/2000/svg">
<g clip-path="url(#clip0_43_51)">
<path d="M22.8988 19.7125L26.1891 0.33667H31.4517L28.1591 19.7125H22.8988Z" fill="#0057A0"/>
<path d="M47.2459 0.813785C46.2032 0.421244 44.5695 0 42.5293 0C37.3293 0 33.6663 2.62793 33.6352 6.39428C33.6059 9.1784 36.2501 10.7315 38.2463 11.6584C40.2947 12.608 40.9834 13.2138 40.9736 14.0618C40.9606 15.3606 39.3378 15.9539 37.8252 15.9539C35.7188 15.9539 34.5998 15.6603 32.8716 14.9369L32.1934 14.6288L31.4548 18.9664C32.684 19.5072 34.9569 19.9758 37.317 20.0001C42.8488 20.0001 46.44 17.4023 46.4808 13.3803C46.5006 11.1762 45.0986 9.49878 42.0625 8.11598C40.223 7.21965 39.0965 6.62153 39.1084 5.71392C39.1084 4.90855 40.0619 4.04735 42.1221 4.04735C43.8431 4.02053 45.0896 4.39713 46.0609 4.78967L46.5325 5.01326L47.2459 0.813785Z" fill="#0057A0"/>
<path d="M60.7406 0.355225H56.6741C55.4144 0.355225 54.4717 0.700257 53.9184 1.96201L46.1028 19.7187H51.6289C51.6289 19.7187 52.5325 17.3312 52.7369 16.807C53.3408 16.807 58.7091 16.8153 59.4766 16.8153C59.634 17.4936 60.1169 19.7187 60.1169 19.7187H65L60.7406 0.355225ZM54.2513 12.8439C54.6865 11.7275 56.348 7.4276 56.348 7.4276C56.3169 7.47916 56.7799 6.3058 57.0457 5.57832L57.4015 7.24885C57.4015 7.24885 58.4091 11.8739 58.6197 12.8438H54.2513V12.8439Z" fill="#0057A0"/>
<path d="M18.485 0.35083L13.3328 13.5637L12.7838 10.8786C11.8247 7.78318 8.83634 4.42965 5.49548 2.75072L10.2066 19.6958L15.7745 19.6894L24.0595 0.35083H18.485Z" fill="#0057A0"/>
<path d="M8.55305 0.338867H0.0671643L0 0.741999C6.60193 2.34582 10.9704 6.22164 12.7837 10.8786L10.9385 1.97465C10.62 0.747739 9.69603 0.381625 8.55305 0.338867Z" fill="#FAA61A"/>
</g>
<defs>
<clipPath id="clip0_43_51">
<rect width="65" height="20" fill="white"/>
</clipPath>
</defs>
</svg>
