<svg width="44" height="44" viewBox="0 0 44 44" fill="none" xmlns="http://www.w3.org/2000/svg">
<g clip-path="url(#clip0_4_175)">
<path fill-rule="evenodd" clip-rule="evenodd" d="M42.3242 43.9968H1.66627C0.743749 43.9968 -0.00402832 43.249 -0.00402832 42.3264V1.66564C-0.00402832 0.743054 0.743749 -0.00435292 1.66627 -0.00435292H42.3242C43.2467 -0.00435292 43.9945 0.743054 43.9945 1.66564V42.3264C43.9945 43.249 43.2467 43.9968 42.3242 43.9968Z" fill="#FF6700"/>
<path d="M34.497 13.8349H31.0355C30.8873 13.8349 30.7673 13.9528 30.7673 14.098V29.8923C30.7673 30.0363 30.8873 30.1542 31.0355 30.1542H34.497C34.6439 30.1542 34.7656 30.0363 34.7656 29.8923V14.098C34.7656 13.9528 34.6439 13.8349 34.497 13.8349Z" fill="white"/>
<path d="M22.678 13.8343H9.49284C9.34463 13.8343 9.22546 13.9522 9.22546 14.0975V29.8918C9.22546 30.0358 9.34463 30.1537 9.49284 30.1537H12.9551C13.1025 30.1537 13.2246 30.0358 13.2246 29.8918V17.4956C13.2246 17.3524 13.3438 17.2337 13.492 17.2337H20.95C23.0473 17.2337 23.6427 18.8401 23.6427 19.8764V29.8918C23.6427 30.0358 23.7631 30.1537 23.9113 30.1537H27.3715C27.5189 30.1537 27.6397 30.0358 27.6397 29.8918V18.6873C27.6397 17.763 27.5285 16.4341 26.3361 15.2643C25.0886 14.0432 23.9505 13.8343 22.678 13.8343Z" fill="white"/>
<path d="M20.2528 20.1258H16.6179C16.4697 20.1258 16.348 20.2437 16.348 20.3881V29.8936C16.348 30.0372 16.4697 30.1551 16.6179 30.1551H20.2528C20.3998 30.1551 20.5202 30.0372 20.5202 29.8936V20.3881C20.5202 20.2437 20.3998 20.1258 20.2528 20.1258Z" fill="white"/>
</g>
<defs>
<clipPath id="clip0_4_175">
<rect width="44" height="44" fill="white"/>
</clipPath>
</defs>
</svg>
